<svg id="Group_10" data-name="Group 10" xmlns="http://www.w3.org/2000/svg" xmlns:xlink="http://www.w3.org/1999/xlink" width="475.116" height="532.092" viewBox="0 0 475.116 532.092">
  <defs>
    <clipPath id="clip-path">
      <rect id="Rectangle_144" data-name="Rectangle 144" width="475.117" height="532.092" fill="#fff"/>
    </clipPath>
  </defs>
  <g id="Group_4" data-name="Group 4" clip-path="url(#clip-path)">
    <path id="Subtraction_2" data-name="Subtraction 2" d="M238.006,530.8l-77.243-44.056-40.862-23.3L1.8,396.078.9,261.806,0,127.534,111.818,63.767,223.636,0q.45,111.794.9,223.588v.1q.448,111.345.9,222.69l-1.579-.9q-25.256-14.371-50.512-28.741V88.017L155.827,98.346l-1.946,1.148-15.567,9.181q-.226,72.325-.451,144.65-.111,35.865-.224,71.73-.111,35.961-.225,71.923l-1.016-.6c-15.683-9.243-32.508-19.158-49.28-29.04q.223-57.635.447-115.27v-.1l.234-60.239q.108-28.058.217-56.115C76.342,142.2,64.47,148.9,52.99,155.378V369.134l64.582,38.176,117.74,69.6,70.173-41.9,22.335-13.336,5.329-3.182,87.179-52.053V286.505l-116.757.9V413.143q-20.9,12.4-41.794,24.793l-11.2,6.641c-.3-148.192-.9-444.577-.9-444.577l159.5,91.231,65.04,37.2V395.18L372.612,453.516l-19.4,11.14L238.006,530.8ZM302.672,87.118h0l-.45,74.561q-.224,37.265-.449,74.529l60.754-.906,59.6-.889V156.276l-76.511-44.3-6.967-4.033L302.672,87.119Z" transform="translate(0.451 0.775)" fill="#fff" stroke="rgba(0,0,0,0)" stroke-miterlimit="10" stroke-width="1"/>
    <path id="Subtraction_4" data-name="Subtraction 4" d="M-8451-407.154h0l-213.122-121.552-23.089-13.169q-.221-32.829-.44-65.657-.236-35.169-.471-70.337-.442-66.275-.887-132.549l61.654-35.16,18.944-10.8,143.038-81.571.061,14.9.838,208.27q.448,111.6.9,223.2l-34.532-19.647-17.559-9.99V-849.936c-7,4.127-14.013,8.262-20.546,12.116l-14.482,8.54q-.451,144.152-.9,288.3c-19.141-11.281-35.593-20.977-50.3-29.639q.438-112.565.873-225.128l.025-6.592-17.514,9.88-5.577,3.147-11.935,6.734v213.756l61.692,36.468,120.63,71.308,105.909-63.239,53.12-31.718,25.986-15.516v-79.934l-59.592.458-9.3.072-47.863.368v125.739l-24.657,14.627-28.333,16.807-.434-214.854-.015-7.2q-.226-111.261-.45-222.521l49.823,28.5q87.356,49.967,174.712,99.936v266.746q-118.1,67.807-236.209,135.619Zm64.665-443.681h0l-.03,5.055q-.209,34.744-.419,69.49l-.226,37.393q-.111,18.576-.224,37.152l56.955-.849,2.292-.034,61.1-.911v-78.139l-52.5-30.392-5.559-3.218-61.4-35.545Z" transform="translate(8689.456 938.729)" fill="#fff" stroke="#fff" stroke-miterlimit="10" stroke-width="1"/>
  </g>
</svg>
